<mxfile host="65bd71144e">
    <diagram id="zL-Re08tUKYIQvqxSzNT" name="페이지-1">
        <mxGraphModel dx="2058" dy="1298" grid="1" gridSize="10" guides="1" tooltips="1" connect="1" arrows="1" fold="1" page="1" pageScale="1" pageWidth="827" pageHeight="1169" math="0" shadow="0">
            <root>
                <mxCell id="0"/>
                <mxCell id="1" parent="0"/>
                <mxCell id="98" value="Service" style="fillColor=none;strokeColor=#5A6C86;dashed=1;verticalAlign=top;fontStyle=0;fontColor=#5A6C86;labelPosition=center;verticalLabelPosition=bottom;align=center;" vertex="1" parent="1">
                    <mxGeometry x="12.95" y="15" width="797.05" height="1095" as="geometry"/>
                </mxCell>
                <mxCell id="39" value="Service" style="fillColor=none;strokeColor=#5A6C86;dashed=1;verticalAlign=top;fontStyle=0;fontColor=#5A6C86;labelPosition=center;verticalLabelPosition=bottom;align=center;" parent="1" vertex="1">
                    <mxGeometry x="40" y="40" width="740" height="90" as="geometry"/>
                </mxCell>
                <mxCell id="40" value="Client" style="fillColor=none;strokeColor=#5A6C86;dashed=1;verticalAlign=top;fontStyle=0;fontColor=#5A6C86;labelPosition=center;verticalLabelPosition=bottom;align=center;" parent="1" vertex="1">
                    <mxGeometry x="49" y="946" width="740" height="100" as="geometry"/>
                </mxCell>
                <mxCell id="24" value="3rd Party Service" style="fillColor=none;strokeColor=#5A6C86;dashed=1;verticalAlign=top;fontStyle=0;fontColor=#5A6C86;labelPosition=center;verticalLabelPosition=bottom;align=center;" parent="1" vertex="1">
                    <mxGeometry x="47" y="779" width="743" height="100" as="geometry"/>
                </mxCell>
                <mxCell id="25" value="&lt;font color=&quot;#000000&quot;&gt;Micro Service&lt;/font&gt;" style="aspect=fixed;perimeter=ellipsePerimeter;html=1;align=center;shadow=0;dashed=0;fontColor=#4277BB;labelBackgroundColor=#ffffff;fontSize=12;spacingTop=3;image;image=img/lib/ibm/applications/microservice.svg;" parent="1" vertex="1">
                    <mxGeometry x="130" y="65" width="54.8" height="40" as="geometry"/>
                </mxCell>
                <mxCell id="26" value="CronJob" style="sketch=0;html=1;dashed=0;whitespace=wrap;fillColor=#2875E2;strokeColor=#ffffff;points=[[0.005,0.63,0],[0.1,0.2,0],[0.9,0.2,0],[0.5,0,0],[0.995,0.63,0],[0.72,0.99,0],[0.5,1,0],[0.28,0.99,0]];verticalLabelPosition=bottom;align=center;verticalAlign=top;shape=mxgraph.kubernetes.icon;prIcon=cronjob" parent="1" vertex="1">
                    <mxGeometry x="280" y="65" width="40" height="40" as="geometry"/>
                </mxCell>
                <mxCell id="27" value="Billing System" style="aspect=fixed;html=1;points=[];align=center;image;fontSize=12;image=img/lib/azure2/general/Cost_Management_and_Billing.svg;" parent="1" vertex="1">
                    <mxGeometry x="452.95" y="65" width="40" height="40" as="geometry"/>
                </mxCell>
                <mxCell id="28" value="Web Server" style="aspect=fixed;perimeter=ellipsePerimeter;html=1;align=center;shadow=0;dashed=0;spacingTop=3;image;image=img/lib/active_directory/web_server.svg;" parent="1" vertex="1">
                    <mxGeometry x="629" y="65" width="32" height="40" as="geometry"/>
                </mxCell>
                <mxCell id="29" value="APNS" style="html=1;strokeWidth=1;shadow=0;dashed=0;shape=mxgraph.ios7.misc.notification;fillColor=#FF3B2F;strokeColor=none;buttonText=;strokeColor2=#222222;fontColor=#222222;fontSize=12;verticalLabelPosition=bottom;verticalAlign=top;align=center;sketch=0;" parent="1" vertex="1">
                    <mxGeometry x="314" y="794" width="50" height="50" as="geometry"/>
                </mxCell>
                <mxCell id="31" value="SMS Service" style="dashed=0;outlineConnect=0;html=1;align=center;labelPosition=center;verticalLabelPosition=bottom;verticalAlign=top;shape=mxgraph.webicons.sms;fillColor=#86D466;gradientColor=#42B418;fontColor=#000000;" parent="1" vertex="1">
                    <mxGeometry x="510" y="794" width="50" height="50" as="geometry"/>
                </mxCell>
                <mxCell id="33" value="FCM" style="sketch=0;dashed=0;connectable=0;html=1;fillColor=#5184F3;strokeColor=none;shape=mxgraph.gcp2.firebase;part=1;labelPosition=center;verticalLabelPosition=bottom;align=center;verticalAlign=top;spacingLeft=5;fontColor=#000000;fontSize=12;" parent="1" vertex="1">
                    <mxGeometry x="150" y="789" width="36.3" height="55" as="geometry"/>
                </mxCell>
                <mxCell id="34" value="" style="sketch=0;outlineConnect=0;fontColor=#232F3E;gradientColor=none;fillColor=#232F3D;strokeColor=none;dashed=0;verticalLabelPosition=bottom;verticalAlign=top;align=center;html=1;fontSize=12;fontStyle=0;aspect=fixed;pointerEvents=1;shape=mxgraph.aws4.client;" parent="1" vertex="1">
                    <mxGeometry x="620" y="966" width="50" height="50" as="geometry"/>
                </mxCell>
                <mxCell id="35" value="" style="dashed=0;outlineConnect=0;html=1;align=center;labelPosition=center;verticalLabelPosition=bottom;verticalAlign=top;shape=mxgraph.webicons.apple;fillColor=#807E7E;gradientColor=#1B1C1C;fontColor=#000000;" parent="1" vertex="1">
                    <mxGeometry x="310" y="966" width="50" height="50" as="geometry"/>
                </mxCell>
                <mxCell id="36" value="" style="dashed=0;outlineConnect=0;html=1;align=center;labelPosition=center;verticalLabelPosition=bottom;verticalAlign=top;shape=mxgraph.webicons.android;gradientColor=#DFDEDE;fontColor=#000000;" parent="1" vertex="1">
                    <mxGeometry x="136.04" y="966" width="50" height="50" as="geometry"/>
                </mxCell>
                <mxCell id="37" value="" style="sketch=0;outlineConnect=0;fontColor=#232F3E;gradientColor=none;fillColor=#232F3D;strokeColor=none;dashed=0;verticalLabelPosition=bottom;verticalAlign=top;align=center;html=1;fontSize=12;fontStyle=0;aspect=fixed;pointerEvents=1;shape=mxgraph.aws4.mobile_client;" parent="1" vertex="1">
                    <mxGeometry x="469.9999999999999" y="956" width="36.8" height="70" as="geometry"/>
                </mxCell>
                <mxCell id="38" value="Email&#10;notification" style="sketch=0;outlineConnect=0;fontColor=#232F3E;gradientColor=none;strokeColor=#232F3E;fillColor=#ffffff;dashed=0;verticalLabelPosition=bottom;verticalAlign=top;align=center;html=1;fontSize=12;fontStyle=0;aspect=fixed;shape=mxgraph.aws4.resourceIcon;resIcon=mxgraph.aws4.email_notification;" parent="1" vertex="1">
                    <mxGeometry x="670" y="779" width="50" height="50" as="geometry"/>
                </mxCell>
                <mxCell id="41" value="" style="edgeStyle=orthogonalEdgeStyle;html=1;endArrow=block;elbow=vertical;startArrow=none;endFill=1;strokeColor=#545B64;rounded=0;exitX=0.5;exitY=1;exitDx=0;exitDy=0;entryX=0.5;entryY=0;entryDx=0;entryDy=0;strokeWidth=3;" parent="1" source="39" target="30" edge="1">
                    <mxGeometry width="100" relative="1" as="geometry">
                        <mxPoint x="180" y="280" as="sourcePoint"/>
                        <mxPoint x="190" y="280" as="targetPoint"/>
                    </mxGeometry>
                </mxCell>
                <mxCell id="43" value="" style="edgeStyle=orthogonalEdgeStyle;html=1;endArrow=block;elbow=vertical;startArrow=none;endFill=1;strokeColor=#545B64;rounded=0;entryX=0.5;entryY=0;entryDx=0;entryDy=0;strokeWidth=3;exitX=0.5;exitY=1;exitDx=0;exitDy=0;" parent="1" source="24" target="40" edge="1">
                    <mxGeometry width="100" relative="1" as="geometry">
                        <mxPoint x="821.5" y="169" as="sourcePoint"/>
                        <mxPoint x="873" y="169" as="targetPoint"/>
                    </mxGeometry>
                </mxCell>
                <mxCell id="44" value="Redis Cache" style="sketch=0;points=[[0,0,0],[0.25,0,0],[0.5,0,0],[0.75,0,0],[1,0,0],[0,1,0],[0.25,1,0],[0.5,1,0],[0.75,1,0],[1,1,0],[0,0.25,0],[0,0.5,0],[0,0.75,0],[1,0.25,0],[1,0.5,0],[1,0.75,0]];outlineConnect=0;fontColor=#232F3E;gradientColor=#4D72F3;gradientDirection=north;fillColor=#3334B9;strokeColor=#ffffff;dashed=0;verticalLabelPosition=middle;verticalAlign=middle;align=left;html=1;fontSize=12;fontStyle=0;aspect=fixed;shape=mxgraph.aws4.resourceIcon;resIcon=mxgraph.aws4.memorydb_for_redis;labelPosition=right;" parent="1" vertex="1">
                    <mxGeometry x="612" y="190" width="49" height="49" as="geometry"/>
                </mxCell>
                <mxCell id="47" value="RDS" style="shape=image;verticalLabelPosition=middle;verticalAlign=middle;imageAspect=0;aspect=fixed;image=data:image/svg+xml,PHN2ZyB3aWR0aD0iNjRweCIgaGVpZ2h0PSI2NHB4IiB2aWV3Qm94PSIwIDAgNjQgNjQiIHZlcnNpb249IjEuMSIgeG1sbnM9Imh0dHA6Ly93d3cudzMub3JnLzIwMDAvc3ZnIiB4bWxuczp4bGluaz0iaHR0cDovL3d3dy53My5vcmcvMTk5OS94bGluayI+CiAgICA8dGl0bGU+SWNvbi1BcmNoaXRlY3R1cmUvNDgvQXJjaF9BbWF6b24tUkRTXzQ4PC90aXRsZT4KICAgIDxnIGlkPSJJY29uLUFyY2hpdGVjdHVyZS80OC9BcmNoX0FtYXpvbi1SRFNfNDgiIHN0cm9rZT0ibm9uZSIgc3Ryb2tlLXdpZHRoPSIxIiBmaWxsPSJub25lIiBmaWxsLXJ1bGU9ImV2ZW5vZGQiPgogICAgICAgIDxnIGlkPSJJY29uLUFyY2hpdGVjdHVyZS1CRy80OC9EYXRhYmFzZSIgZmlsbD0iI0M5MjVEMSI+CiAgICAgICAgICAgIDxyZWN0IGlkPSJSZWN0YW5nbGUiIHg9IjAiIHk9IjAiIHdpZHRoPSI2NCIgaGVpZ2h0PSI2NCI+PC9yZWN0PgogICAgICAgIDwvZz4KICAgICAgICA8cGF0aCBkPSJNNTQsMTEgTDU0LDE5IEw1MiwxOSBMNTIsMTMuNDE0IEw0NS43MDcsMTkuNzA3IEw0NC4yOTMsMTguMjkzIEw1MC41ODYsMTIgTDQ1LjEyNSwxMiBMNDUuMTI1LDEwIEw1MywxMCBDNTMuNTUzLDEwIDU0LDEwLjQ0OCA1NCwxMSBMNTQsMTEgWiBNMTIsMTguODc1IEwxMCwxOC44NzUgTDEwLDExIEMxMCwxMC40NDggMTAuNDQ3LDEwIDExLDEwIEwxOSwxMCBMMTksMTIgTDEzLjQxNCwxMiBMMTkuNzA3LDE4LjI5MyBMMTguMjkzLDE5LjcwNyBMMTIsMTMuNDE0IEwxMiwxOC44NzUgWiBNMTkuNzA3LDQ1LjcwNyBMMTMuNDE0LDUyIEwxOC44NzUsNTIgTDE4Ljg3NSw1NCBMMTEsNTQgQzEwLjQ0Nyw1NCAxMCw1My41NTIgMTAsNTMgTDEwLDQ1IEwxMiw0NSBMMTIsNTAuNTg2IEwxOC4yOTMsNDQuMjkzIEwxOS43MDcsNDUuNzA3IFogTTUxLjUsMzEuNzgxIEM1MS41LDI5LjM1MiA0OC42MzQsMjYuOTMyIDQzLjgzMywyNS4zMDcgTDQ0LjQ3NCwyMy40MTMgQzUwLjIxLDI1LjM1NCA1My41LDI4LjQwNCA1My41LDMxLjc4MSBDNTMuNSwzNS4xNTggNTAuMjEsMzguMjA4IDQ0LjQ3NCw0MC4xNSBMNDMuODMzLDM4LjI1NSBDNDguNjM0LDM2LjYzMSA1MS41LDM0LjIxIDUxLjUsMzEuNzgxIEw1MS41LDMxLjc4MSBaIE0xMi41NDMsMzEuNzgxIEMxMi41NDMsMzQuMTA1IDE1LjIyNCwzNi40NiAxOS43MTUsMzguMDgxIEwxOS4wMzUsMzkuOTYxIEMxMy42MzksMzguMDE0IDEwLjU0MywzNS4wMzMgMTAuNTQzLDMxLjc4MSBDMTAuNTQzLDI4LjUzIDEzLjYzOSwyNS41NDggMTkuMDM1LDIzLjYwMSBMMTkuNzE1LDI1LjQ4MiBDMTUuMjI0LDI3LjEwMyAxMi41NDMsMjkuNDU4IDEyLjU0MywzMS43ODEgTDEyLjU0MywzMS43ODEgWiBNNTIsNDUuMTI1IEw1NCw0NS4xMjUgTDU0LDUzIEM1NCw1My41NTIgNTMuNTUzLDU0IDUzLDU0IEw0NSw1NCBMNDUsNTIgTDUwLjU4Niw1MiBMNDQuMjkzLDQ1LjcwNyBMNDUuNzA3LDQ0LjI5MyBMNTIsNTAuNTg2IEw1Miw0NS4xMjUgWiBNMzIuMDIyLDMxLjQwMiBDMjYuOTk5LDMxLjQwMiAyNC4xMjYsMzAuMDU5IDI0LDI5LjQ4MyBMMjQsMjYuMjU3IEMyNi4xNTksMjcuMjY2IDI5LjYwOSwyNy41OTMgMzIsMjcuNTkzIEMzNC4zOTEsMjcuNTkzIDM3Ljg0MSwyNy4yNjYgNDAsMjYuMjU3IEw0MCwyOS40ODMgQzM5Ljg5NCwzMC4wNTcgMzcuMDUxLDMxLjQwMiAzMi4wMjIsMzEuNDAyIEwzMi4wMjIsMzEuNDAyIFogTTMyLjAyMiwzNy4xMyBDMjYuOTk5LDM3LjEzIDI0LjEyNiwzNS43ODYgMjQsMzUuMjEgTDI0LDMxLjk1NiBDMjUuOTUzLDMyLjkzNyAyOS4wNTUsMzMuNDAyIDMyLjAyMiwzMy40MDIgQzM0Ljk3MywzMy40MDIgMzguMDU1LDMyLjkzOCA0MCwzMS45NiBMNDAsMzUuMjEgQzM5Ljg5NCwzNS43ODUgMzcuMDUyLDM3LjEzIDMyLjAyMiwzNy4xMyBMMzIuMDIyLDM3LjEzIFogTTMyLDQyLjI2OCBDMjYuOTUsNDIuMjY4IDI0LjEwNCw0MC45MTcgMjQsNDAuMzQ2IEwyNCwzNy42ODMgQzI1Ljk1MywzOC42NjUgMjkuMDU1LDM5LjEzIDMyLjAyMiwzOS4xMyBDMzQuOTczLDM5LjEzIDM4LjA1NSwzOC42NjYgNDAsMzcuNjg3IEw0MCw0MC4zNDIgQzM5Ljg5Niw0MC45MTcgMzcuMDUsNDIuMjY4IDMyLDQyLjI2OCBMMzIsNDIuMjY4IFogTTMyLDIyLjE5MyBDMzYuOTcxLDIyLjE5MyAzOS42NDIsMjMuMzcgMzkuOTgyLDIzLjg5NCBDMzkuNjQyLDI0LjQxNyAzNi45NzEsMjUuNTkzIDMyLDI1LjU5MyBDMjYuOTA5LDI1LjU5MyAyNC4yMzMsMjQuMzYxIDI0LDIzLjk0OSBMMjQsMjMuOTMgQzI0LjIzMywyMy40MjYgMjYuOTA5LDIyLjE5MyAzMiwyMi4xOTMgTDMyLDIyLjE5MyBaIE0zMiwyMC4xOTMgQzI4LjI4NiwyMC4xOTMgMjIsMjAuOTczIDIyLDIzLjg5NCBMMjIsNDAuMzQ2IEMyMiw0My4wNDEgMjcuMTg0LDQ0LjI2OCAzMiw0NC4yNjggQzM2LjgxNiw0NC4yNjggNDIsNDMuMDQxIDQyLDQwLjM0NiBMNDIsMjMuODk0IEM0MiwyMC45NzMgMzUuNzE0LDIwLjE5MyAzMiwyMC4xOTMgTDMyLDIwLjE5MyBaIiBpZD0iQW1hem9uLVJEU19JY29uXzQ4X1NxdWlkIiBmaWxsPSIjRkZGRkZGIj48L3BhdGg+CiAgICA8L2c+Cjwvc3ZnPg==;labelPosition=right;align=left;" parent="1" vertex="1">
                    <mxGeometry x="672" y="300" width="48" height="48" as="geometry"/>
                </mxCell>
                <mxCell id="48" value="" style="edgeStyle=orthogonalEdgeStyle;html=1;endArrow=block;elbow=vertical;startArrow=block;startFill=1;endFill=1;strokeColor=#545B64;rounded=0;exitX=1;exitY=0.5;exitDx=0;exitDy=0;entryX=0;entryY=0.5;entryDx=0;entryDy=0;entryPerimeter=0;strokeWidth=3;" parent="1" source="30" target="44" edge="1">
                    <mxGeometry width="100" relative="1" as="geometry">
                        <mxPoint x="320" y="380" as="sourcePoint"/>
                        <mxPoint x="420" y="380" as="targetPoint"/>
                    </mxGeometry>
                </mxCell>
                <mxCell id="51" value="" style="edgeStyle=orthogonalEdgeStyle;html=1;endArrow=block;elbow=vertical;startArrow=block;startFill=1;endFill=1;strokeColor=#545B64;rounded=0;entryX=0.5;entryY=0;entryDx=0;entryDy=0;strokeWidth=3;exitX=0.5;exitY=1;exitDx=0;exitDy=0;exitPerimeter=0;" parent="1" target="47" edge="1" source="44">
                    <mxGeometry width="100" relative="1" as="geometry">
                        <mxPoint x="290" y="350" as="sourcePoint"/>
                        <mxPoint x="299.5" y="310" as="targetPoint"/>
                    </mxGeometry>
                </mxCell>
                <mxCell id="52" value="" style="sketch=0;aspect=fixed;pointerEvents=1;shadow=0;dashed=0;html=1;strokeColor=none;labelPosition=center;verticalLabelPosition=bottom;verticalAlign=top;align=center;fillColor=#00188D;shape=mxgraph.azure.queue_generic" parent="1" vertex="1">
                    <mxGeometry x="634.9999999999999" y="440" width="120" height="36" as="geometry"/>
                </mxCell>
                <mxCell id="53" value="" style="sketch=0;aspect=fixed;pointerEvents=1;shadow=0;dashed=0;html=1;strokeColor=none;labelPosition=center;verticalLabelPosition=bottom;verticalAlign=top;align=center;fillColor=#00188D;shape=mxgraph.azure.queue_generic" parent="1" vertex="1">
                    <mxGeometry x="470" y="440" width="120" height="36" as="geometry"/>
                </mxCell>
                <mxCell id="54" value="" style="sketch=0;aspect=fixed;pointerEvents=1;shadow=0;dashed=0;html=1;strokeColor=none;labelPosition=center;verticalLabelPosition=bottom;verticalAlign=top;align=center;fillColor=#00188D;shape=mxgraph.azure.queue_generic" parent="1" vertex="1">
                    <mxGeometry x="292.04" y="440" width="120" height="36" as="geometry"/>
                </mxCell>
                <mxCell id="55" value="" style="sketch=0;aspect=fixed;pointerEvents=1;shadow=0;dashed=0;html=1;strokeColor=none;labelPosition=center;verticalLabelPosition=bottom;verticalAlign=top;align=center;fillColor=#00188D;shape=mxgraph.azure.queue_generic" parent="1" vertex="1">
                    <mxGeometry x="110" y="440" width="120" height="36" as="geometry"/>
                </mxCell>
                <mxCell id="56" value="EC2 instance contents" style="points=[[0,0],[0.25,0],[0.5,0],[0.75,0],[1,0],[1,0.25],[1,0.5],[1,0.75],[1,1],[0.75,1],[0.5,1],[0.25,1],[0,1],[0,0.75],[0,0.5],[0,0.25]];outlineConnect=0;gradientColor=none;html=1;whiteSpace=wrap;fontSize=12;fontStyle=0;container=1;pointerEvents=0;collapsible=0;recursiveResize=0;shape=mxgraph.aws4.group;grIcon=mxgraph.aws4.group_ec2_instance_contents;strokeColor=#D86613;fillColor=none;verticalAlign=top;align=left;spacingLeft=30;fontColor=#D86613;dashed=0;" parent="1" vertex="1">
                    <mxGeometry x="642.91" y="550" width="154.09" height="70" as="geometry"/>
                </mxCell>
                <mxCell id="57" value="Send Server" style="sketch=0;outlineConnect=0;fontColor=#232F3E;gradientColor=none;fillColor=#D45B07;strokeColor=none;dashed=0;verticalLabelPosition=middle;verticalAlign=middle;align=left;html=1;fontSize=12;fontStyle=0;aspect=fixed;pointerEvents=1;shape=mxgraph.aws4.instance2;labelPosition=right;" parent="56" vertex="1">
                    <mxGeometry x="18.55" y="34" width="26" height="26" as="geometry"/>
                </mxCell>
                <mxCell id="66" value="EC2 instance contents" style="points=[[0,0],[0.25,0],[0.5,0],[0.75,0],[1,0],[1,0.25],[1,0.5],[1,0.75],[1,1],[0.75,1],[0.5,1],[0.25,1],[0,1],[0,0.75],[0,0.5],[0,0.25]];outlineConnect=0;gradientColor=none;html=1;whiteSpace=wrap;fontSize=12;fontStyle=0;container=1;pointerEvents=0;collapsible=0;recursiveResize=0;shape=mxgraph.aws4.group;grIcon=mxgraph.aws4.group_ec2_instance_contents;strokeColor=#D86613;fillColor=none;verticalAlign=top;align=left;spacingLeft=30;fontColor=#D86613;dashed=0;" parent="1" vertex="1">
                    <mxGeometry x="465.90999999999997" y="550" width="154.09" height="70" as="geometry"/>
                </mxCell>
                <mxCell id="67" value="Send Server" style="sketch=0;outlineConnect=0;fontColor=#232F3E;gradientColor=none;fillColor=#D45B07;strokeColor=none;dashed=0;verticalLabelPosition=middle;verticalAlign=middle;align=left;html=1;fontSize=12;fontStyle=0;aspect=fixed;pointerEvents=1;shape=mxgraph.aws4.instance2;labelPosition=right;" parent="66" vertex="1">
                    <mxGeometry x="18.55" y="34" width="26" height="26" as="geometry"/>
                </mxCell>
                <mxCell id="68" value="EC2 instance contents" style="points=[[0,0],[0.25,0],[0.5,0],[0.75,0],[1,0],[1,0.25],[1,0.5],[1,0.75],[1,1],[0.75,1],[0.5,1],[0.25,1],[0,1],[0,0.75],[0,0.5],[0,0.25]];outlineConnect=0;gradientColor=none;html=1;whiteSpace=wrap;fontSize=12;fontStyle=0;container=1;pointerEvents=0;collapsible=0;recursiveResize=0;shape=mxgraph.aws4.group;grIcon=mxgraph.aws4.group_ec2_instance_contents;strokeColor=#D86613;fillColor=none;verticalAlign=top;align=left;spacingLeft=30;fontColor=#D86613;dashed=0;" parent="1" vertex="1">
                    <mxGeometry x="275" y="550" width="154.09" height="70" as="geometry"/>
                </mxCell>
                <mxCell id="69" value="Send Server" style="sketch=0;outlineConnect=0;fontColor=#232F3E;gradientColor=none;fillColor=#D45B07;strokeColor=none;dashed=0;verticalLabelPosition=middle;verticalAlign=middle;align=left;html=1;fontSize=12;fontStyle=0;aspect=fixed;pointerEvents=1;shape=mxgraph.aws4.instance2;labelPosition=right;" parent="68" vertex="1">
                    <mxGeometry x="18.55" y="34" width="26" height="26" as="geometry"/>
                </mxCell>
                <mxCell id="70" value="EC2 instance contents" style="points=[[0,0],[0.25,0],[0.5,0],[0.75,0],[1,0],[1,0.25],[1,0.5],[1,0.75],[1,1],[0.75,1],[0.5,1],[0.25,1],[0,1],[0,0.75],[0,0.5],[0,0.25]];outlineConnect=0;gradientColor=none;html=1;whiteSpace=wrap;fontSize=12;fontStyle=0;container=1;pointerEvents=0;collapsible=0;recursiveResize=0;shape=mxgraph.aws4.group;grIcon=mxgraph.aws4.group_ec2_instance_contents;strokeColor=#D86613;fillColor=none;verticalAlign=top;align=left;spacingLeft=30;fontColor=#D86613;dashed=0;" parent="1" vertex="1">
                    <mxGeometry x="92.96000000000001" y="550" width="154.09" height="70" as="geometry"/>
                </mxCell>
                <mxCell id="71" value="Send Server" style="sketch=0;outlineConnect=0;fontColor=#232F3E;gradientColor=none;fillColor=#D45B07;strokeColor=none;dashed=0;verticalLabelPosition=middle;verticalAlign=middle;align=left;html=1;fontSize=12;fontStyle=0;aspect=fixed;pointerEvents=1;shape=mxgraph.aws4.instance2;labelPosition=right;" parent="70" vertex="1">
                    <mxGeometry x="18.55" y="34" width="26" height="26" as="geometry"/>
                </mxCell>
                <mxCell id="72" value="" style="edgeStyle=orthogonalEdgeStyle;html=1;endArrow=block;elbow=vertical;startArrow=none;endFill=1;strokeColor=#545B64;rounded=0;exitX=0.5;exitY=1;exitDx=0;exitDy=0;entryX=0;entryY=0.5;entryDx=0;entryDy=0;strokeWidth=3;entryPerimeter=0;" parent="1" source="30" target="52" edge="1">
                    <mxGeometry width="100" relative="1" as="geometry">
                        <mxPoint x="383" y="220" as="sourcePoint"/>
                        <mxPoint x="233" y="230" as="targetPoint"/>
                        <Array as="points">
                            <mxPoint x="410" y="370"/>
                            <mxPoint x="610" y="370"/>
                            <mxPoint x="610" y="458"/>
                        </Array>
                    </mxGeometry>
                </mxCell>
                <mxCell id="73" value="" style="edgeStyle=orthogonalEdgeStyle;html=1;endArrow=block;elbow=vertical;startArrow=none;endFill=1;strokeColor=#545B64;rounded=0;exitX=0.5;exitY=1;exitDx=0;exitDy=0;entryX=0;entryY=0.5;entryDx=0;entryDy=0;strokeWidth=3;entryPerimeter=0;" parent="1" source="30" target="55" edge="1">
                    <mxGeometry width="100" relative="1" as="geometry">
                        <mxPoint x="383" y="220" as="sourcePoint"/>
                        <mxPoint x="423" y="75" as="targetPoint"/>
                        <Array as="points">
                            <mxPoint x="410" y="370"/>
                            <mxPoint x="70" y="370"/>
                            <mxPoint x="70" y="458"/>
                        </Array>
                    </mxGeometry>
                </mxCell>
                <mxCell id="75" value="" style="edgeStyle=orthogonalEdgeStyle;html=1;endArrow=block;elbow=vertical;startArrow=none;endFill=1;strokeColor=#545B64;rounded=0;exitX=0.5;exitY=1;exitDx=0;exitDy=0;strokeWidth=3;entryX=0;entryY=0.5;entryDx=0;entryDy=0;entryPerimeter=0;" parent="1" source="30" target="54" edge="1">
                    <mxGeometry width="100" relative="1" as="geometry">
                        <mxPoint x="380" y="230" as="sourcePoint"/>
                        <mxPoint x="290" y="458" as="targetPoint"/>
                        <Array as="points">
                            <mxPoint x="410" y="370"/>
                            <mxPoint x="250" y="370"/>
                            <mxPoint x="250" y="458"/>
                        </Array>
                    </mxGeometry>
                </mxCell>
                <mxCell id="76" value="" style="edgeStyle=orthogonalEdgeStyle;html=1;endArrow=block;elbow=vertical;startArrow=none;endFill=1;strokeColor=#545B64;rounded=0;exitX=0.5;exitY=1;exitDx=0;exitDy=0;entryX=0;entryY=0.5;entryDx=0;entryDy=0;strokeWidth=3;entryPerimeter=0;" parent="1" source="30" target="53" edge="1">
                    <mxGeometry width="100" relative="1" as="geometry">
                        <mxPoint x="380" y="230" as="sourcePoint"/>
                        <mxPoint x="423.0000000000001" y="250" as="targetPoint"/>
                        <Array as="points">
                            <mxPoint x="410" y="370"/>
                            <mxPoint x="440" y="370"/>
                            <mxPoint x="440" y="458"/>
                        </Array>
                    </mxGeometry>
                </mxCell>
                <mxCell id="77" value="" style="edgeStyle=orthogonalEdgeStyle;html=1;endArrow=block;elbow=vertical;startArrow=none;endFill=1;strokeColor=#545B64;rounded=0;exitX=1;exitY=0.51;exitDx=0;exitDy=0;entryX=0.5;entryY=0;entryDx=0;entryDy=0;strokeWidth=3;exitPerimeter=0;" parent="1" source="52" target="56" edge="1">
                    <mxGeometry width="100" relative="1" as="geometry">
                        <mxPoint x="380" y="230.0000000000001" as="sourcePoint"/>
                        <mxPoint x="423" y="75" as="targetPoint"/>
                    </mxGeometry>
                </mxCell>
                <mxCell id="78" value="" style="edgeStyle=orthogonalEdgeStyle;html=1;endArrow=block;elbow=vertical;startArrow=none;endFill=1;strokeColor=#545B64;rounded=0;exitX=1;exitY=0.51;exitDx=0;exitDy=0;strokeWidth=3;exitPerimeter=0;" parent="1" source="53" target="66" edge="1">
                    <mxGeometry width="100" relative="1" as="geometry">
                        <mxPoint x="543" y="75.3599999999999" as="sourcePoint"/>
                        <mxPoint x="613" y="68" as="targetPoint"/>
                    </mxGeometry>
                </mxCell>
                <mxCell id="79" value="" style="edgeStyle=orthogonalEdgeStyle;html=1;endArrow=block;elbow=vertical;startArrow=none;endFill=1;strokeColor=#545B64;rounded=0;exitX=1;exitY=0.51;exitDx=0;exitDy=0;strokeWidth=3;exitPerimeter=0;entryX=0.5;entryY=0;entryDx=0;entryDy=0;" parent="1" source="54" target="68" edge="1">
                    <mxGeometry width="100" relative="1" as="geometry">
                        <mxPoint x="543" y="155.36" as="sourcePoint"/>
                        <mxPoint x="613" y="170" as="targetPoint"/>
                    </mxGeometry>
                </mxCell>
                <mxCell id="80" value="" style="edgeStyle=orthogonalEdgeStyle;html=1;endArrow=block;elbow=vertical;startArrow=none;endFill=1;strokeColor=#545B64;rounded=0;exitX=0.5;exitY=1;exitDx=0;exitDy=0;strokeWidth=3;exitPerimeter=0;entryX=0.5;entryY=0;entryDx=0;entryDy=0;" parent="1" source="55" target="70" edge="1">
                    <mxGeometry width="100" relative="1" as="geometry">
                        <mxPoint x="543" y="250.36" as="sourcePoint"/>
                        <mxPoint x="613" y="259.9999999999999" as="targetPoint"/>
                    </mxGeometry>
                </mxCell>
                <mxCell id="81" value="" style="edgeStyle=orthogonalEdgeStyle;html=1;endArrow=block;elbow=vertical;startArrow=none;endFill=1;strokeColor=#FF66B3;rounded=0;strokeWidth=3;entryX=0;entryY=0.5;entryDx=0;entryDy=0;entryPerimeter=0;exitX=0;exitY=0.5;exitDx=0;exitDy=0;" parent="1" source="70" target="55" edge="1">
                    <mxGeometry width="100" relative="1" as="geometry">
                        <mxPoint x="93" y="590" as="sourcePoint"/>
                        <mxPoint x="543" y="345.36" as="targetPoint"/>
                        <Array as="points">
                            <mxPoint x="40" y="585"/>
                            <mxPoint x="40" y="458"/>
                        </Array>
                    </mxGeometry>
                </mxCell>
                <mxCell id="82" value="RETRY" style="edgeLabel;html=1;align=center;verticalAlign=middle;resizable=0;points=[];" parent="81" vertex="1" connectable="0">
                    <mxGeometry x="-0.367" y="1" relative="1" as="geometry">
                        <mxPoint x="31" y="-25" as="offset"/>
                    </mxGeometry>
                </mxCell>
                <mxCell id="83" value="" style="edgeStyle=orthogonalEdgeStyle;html=1;endArrow=block;elbow=vertical;startArrow=none;endFill=1;strokeColor=#545B64;rounded=0;exitX=0.5;exitY=1;exitDx=0;exitDy=0;strokeWidth=3;" parent="1" source="56" edge="1">
                    <mxGeometry width="100" relative="1" as="geometry">
                        <mxPoint x="543" y="155.36" as="sourcePoint"/>
                        <mxPoint x="420" y="780" as="targetPoint"/>
                        <Array as="points"/>
                    </mxGeometry>
                </mxCell>
                <mxCell id="84" value="" style="edgeStyle=orthogonalEdgeStyle;html=1;endArrow=block;elbow=vertical;startArrow=none;endFill=1;strokeColor=#545B64;rounded=0;exitX=0.5;exitY=1;exitDx=0;exitDy=0;strokeWidth=3;" parent="1" source="66" edge="1">
                    <mxGeometry width="100" relative="1" as="geometry">
                        <mxPoint x="767.0899999999999" y="68" as="sourcePoint"/>
                        <mxPoint x="420" y="780" as="targetPoint"/>
                    </mxGeometry>
                </mxCell>
                <mxCell id="85" value="" style="edgeStyle=orthogonalEdgeStyle;html=1;endArrow=block;elbow=vertical;startArrow=none;endFill=1;strokeColor=#545B64;rounded=0;strokeWidth=3;exitX=0.5;exitY=1;exitDx=0;exitDy=0;" parent="1" source="68" target="24" edge="1">
                    <mxGeometry width="100" relative="1" as="geometry">
                        <mxPoint x="767.0899999999999" y="170" as="sourcePoint"/>
                        <mxPoint x="860" y="220" as="targetPoint"/>
                        <Array as="points">
                            <mxPoint x="352" y="700"/>
                            <mxPoint x="420" y="700"/>
                        </Array>
                    </mxGeometry>
                </mxCell>
                <mxCell id="86" value="" style="edgeStyle=orthogonalEdgeStyle;html=1;endArrow=block;elbow=vertical;startArrow=none;endFill=1;strokeColor=#545B64;rounded=0;strokeWidth=3;exitX=0.5;exitY=1;exitDx=0;exitDy=0;entryX=0.502;entryY=-0.004;entryDx=0;entryDy=0;entryPerimeter=0;" parent="1" source="70" target="24" edge="1">
                    <mxGeometry width="100" relative="1" as="geometry">
                        <mxPoint x="767.0900000000001" y="260" as="sourcePoint"/>
                        <mxPoint x="422" y="840" as="targetPoint"/>
                        <Array as="points">
                            <mxPoint x="170" y="700"/>
                            <mxPoint x="420" y="700"/>
                        </Array>
                    </mxGeometry>
                </mxCell>
                <mxCell id="97" value="" style="group" vertex="1" connectable="0" parent="1">
                    <mxGeometry x="330" y="250" width="160" height="40" as="geometry"/>
                </mxCell>
                <mxCell id="30" value="           Notification System" style="fillColor=none;strokeColor=#5A6C86;dashed=1;verticalAlign=middle;fontStyle=0;fontColor=#5A6C86;" parent="97" vertex="1">
                    <mxGeometry width="160" height="40" as="geometry"/>
                </mxCell>
                <mxCell id="32" value="" style="sketch=0;pointerEvents=1;shadow=0;dashed=0;html=1;strokeColor=none;fillColor=#005F4B;labelPosition=center;verticalLabelPosition=bottom;verticalAlign=top;align=center;outlineConnect=0;shape=mxgraph.veeam2.alarm;fontColor=#000000;" parent="97" vertex="1">
                    <mxGeometry x="5.910000000000025" y="6" width="28.000000000000004" height="28.000000000000004" as="geometry"/>
                </mxCell>
            </root>
        </mxGraphModel>
    </diagram>
</mxfile>